<mxfile host="65bd71144e" scale="1" border="10">
    <diagram id="-rriOPSDnHkLpZKLwRpb" name="Page-1">
        <mxGraphModel dx="3052" dy="3204" grid="1" gridSize="10" guides="1" tooltips="1" connect="1" arrows="1" fold="1" page="1" pageScale="1" pageWidth="850" pageHeight="1100" background="#FFFFFF" math="0" shadow="0">
            <root>
                <mxCell id="0"/>
                <mxCell id="1" parent="0"/>
                <mxCell id="315" value="" style="endArrow=oval;html=1;fillStyle=auto;strokeWidth=1;startSize=6;endSize=6;fillColor=#000000;startArrow=none;startFill=0;endFill=0;" edge="1" parent="1" source="317">
                    <mxGeometry width="50" height="50" relative="1" as="geometry">
                        <mxPoint x="-2355.7" y="-2124.0333333333333" as="sourcePoint"/>
                        <mxPoint x="-2349.7599999999998" y="-1830.6900000000003" as="targetPoint"/>
                    </mxGeometry>
                </mxCell>
                <mxCell id="316" value="data&lt;br&gt;inizio" style="edgeLabel;html=1;align=center;verticalAlign=middle;resizable=0;points=[];" vertex="1" connectable="0" parent="315">
                    <mxGeometry x="0.4791" y="1" relative="1" as="geometry">
                        <mxPoint x="-3" y="-28" as="offset"/>
                    </mxGeometry>
                </mxCell>
                <mxCell id="342" value="affluenza&lt;br&gt;media" style="edgeStyle=none;html=1;exitX=1;exitY=0.5;exitDx=0;exitDy=0;strokeColor=#0000CC;endArrow=oval;endFill=0;fontColor=#0000CC;" edge="1" parent="1" source="317">
                    <mxGeometry x="1" y="-40" relative="1" as="geometry">
                        <mxPoint x="-2270" y="-1780" as="targetPoint"/>
                        <mxPoint x="40" y="-40" as="offset"/>
                    </mxGeometry>
                </mxCell>
                <mxCell id="317" value="LIVE" style="whiteSpace=wrap;html=1;" vertex="1" parent="1">
                    <mxGeometry x="-2370.3" y="-1799.95" width="80" height="40" as="geometry"/>
                </mxCell>
                <mxCell id="325" style="edgeStyle=none;shape=connector;rounded=1;fillStyle=auto;html=1;labelBackgroundColor=default;strokeColor=default;strokeWidth=1;fontFamily=Helvetica;fontSize=11;fontColor=default;endArrow=none;endFill=0;startSize=6;endSize=6;fillColor=#000000;startArrow=oval;startFill=0;" edge="1" parent="1" target="317">
                    <mxGeometry relative="1" as="geometry">
                        <mxPoint x="-2309.725872814796" y="-1761.0599999999997" as="targetPoint"/>
                        <mxPoint x="-2309.7599999999998" y="-1820.6900000000003" as="sourcePoint"/>
                    </mxGeometry>
                </mxCell>
                <mxCell id="326" value="premium" style="edgeLabel;html=1;align=center;verticalAlign=middle;resizable=0;points=[];fontSize=11;fontFamily=Helvetica;fontColor=default;" vertex="1" connectable="0" parent="325">
                    <mxGeometry x="-0.2572" y="1" relative="1" as="geometry">
                        <mxPoint x="33" y="-8" as="offset"/>
                    </mxGeometry>
                </mxCell>
                <mxCell id="328" value="" style="endArrow=oval;html=1;fillStyle=auto;strokeWidth=1;startSize=6;endSize=6;fillColor=#000000;startArrow=none;startFill=0;endFill=0;" edge="1" parent="1" source="317">
                    <mxGeometry width="50" height="50" relative="1" as="geometry">
                        <mxPoint x="-2327.970476941269" y="-1789.95" as="sourcePoint"/>
                        <mxPoint x="-2369.76" y="-1820.6900000000003" as="targetPoint"/>
                    </mxGeometry>
                </mxCell>
                <mxCell id="329" value="data&lt;br&gt;fine" style="edgeLabel;html=1;align=center;verticalAlign=middle;resizable=0;points=[];" vertex="1" connectable="0" parent="328">
                    <mxGeometry x="0.4791" y="1" relative="1" as="geometry">
                        <mxPoint x="-25" y="-6" as="offset"/>
                    </mxGeometry>
                </mxCell>
                <mxCell id="338" value="(0, N)" style="edgeStyle=none;html=1;endArrow=none;endFill=0;exitX=0.5;exitY=1;exitDx=0;exitDy=0;" edge="1" parent="1" target="341">
                    <mxGeometry x="0.6553" y="-20" relative="1" as="geometry">
                        <mxPoint as="offset"/>
                        <mxPoint x="-2331.28" y="-1759.95" as="sourcePoint"/>
                    </mxGeometry>
                </mxCell>
                <mxCell id="339" value="AFFLUENZA" style="whiteSpace=wrap;html=1;" vertex="1" parent="1">
                    <mxGeometry x="-2370.8900000000003" y="-1639.67" width="80" height="39.62" as="geometry"/>
                </mxCell>
                <mxCell id="340" value="(1, 1)" style="edgeStyle=none;html=1;endArrow=none;endFill=0;" edge="1" parent="1" source="341" target="339">
                    <mxGeometry x="-0.4543" y="-19" relative="1" as="geometry">
                        <mxPoint as="offset"/>
                    </mxGeometry>
                </mxCell>
                <mxCell id="341" value="media&lt;br&gt;spettatori" style="rhombus;whiteSpace=wrap;html=1;" vertex="1" parent="1">
                    <mxGeometry x="-2380.61" y="-1720.0000000000002" width="100.61" height="40" as="geometry"/>
                </mxCell>
            </root>
        </mxGraphModel>
    </diagram>
</mxfile>
